<svg version="1.1" xmlns="http://www.w3.org/2000/svg" xmlns:xlink="http://www.w3.org/1999/xlink" width="273.882" height="273.882" viewBox="0,0,273.882,273.882"><defs><radialGradient cx="-16508.43282" cy="54507.25166" r="1" gradientUnits="userSpaceOnUse" id="color-1"><stop offset="0" stop-color="#fac5ff"/><stop offset="0.54" stop-color="#edadff"/><stop offset="1" stop-color="#be58ff"/></radialGradient><clipPath id="clip-1"><path d="M104.298,151.349c0,-74.86275 60.68825,-135.551 135.551,-135.551c74.86275,0 135.551,60.68825 135.551,135.551c0,74.86275 -60.68825,135.551 -135.551,135.551c-74.86275,0 -135.551,-60.68825 -135.551,-135.551z" fill="none" fill-rule="nonzero" stroke="none" stroke-width="1" stroke-linecap="butt" stroke-linejoin="miter" stroke-miterlimit="10"/></clipPath></defs><g transform="translate(-102.908,-14.408)"><g data-paper-data="{&quot;isPaintingLayer&quot;:true}" stroke-dasharray="" stroke-dashoffset="0" style="mix-blend-mode: normal"><g fill="none" fill-rule="nonzero" stroke="none" stroke-width="1" stroke-linecap="butt" stroke-linejoin="miter" stroke-miterlimit="10" font-family="sans-serif" font-weight="normal" font-size="12" text-anchor="start"/><path d="M104.298,151.349c0,-74.86275 60.68825,-135.551 135.551,-135.551c74.86275,0 135.551,60.68825 135.551,135.551c0,74.86275 -60.68825,135.551 -135.551,135.551c-74.86275,0 -135.551,-60.68825 -135.551,-135.551z" fill="url(#color-1)" fill-rule="evenodd" stroke="none" stroke-width="1" stroke-linecap="round" stroke-linejoin="round" stroke-miterlimit="1.5"/><g clip-path="url(#clip-1)"><g fill="none" fill-rule="nonzero" stroke="none" stroke-width="1" stroke-linecap="butt" stroke-linejoin="miter" stroke-miterlimit="10" font-family="sans-serif" font-weight="normal" font-size="12" text-anchor="start"/><path d="M130.23,24.038c0,-26.82557 46.44016,-48.572 103.727,-48.572c57.28684,0 103.727,21.74643 103.727,48.572c0,26.82557 -46.44016,48.572 -103.727,48.572c-57.28684,0 -103.727,-21.74642 -103.727,-48.572z" fill="none" fill-rule="evenodd" stroke-opacity="0.31" stroke="#902dff" stroke-width="6.94" stroke-linecap="round" stroke-linejoin="round" stroke-miterlimit="1.5"/><g fill="none" fill-rule="evenodd" stroke-opacity="0.31" stroke="#902dff" stroke-width="6.94" stroke-linecap="round" stroke-linejoin="round" stroke-miterlimit="1.5"><path d="M130.23,-9.8196c0,-26.82557 46.44016,-48.572 103.727,-48.572c57.28684,0 103.727,21.74642 103.727,48.572c0,26.82558 -46.44016,48.572 -103.727,48.572c-57.28684,0 -103.727,-21.74642 -103.727,-48.572z"/></g><g fill-opacity="0.49" fill="#5a2395" fill-rule="evenodd" stroke="none" stroke-width="1" stroke-linecap="round" stroke-linejoin="round" stroke-miterlimit="1.5"><path d="M239.84942,229.90583c55.48743,0 103.30188,-33.18025 118.00445,-74.04767c0,65.26081 -52.87549,118.24334 -118.00445,118.24334c-65.12896,0 -118.00445,-52.98254 -118.00445,-118.24334c14.70125,40.86743 62.51702,74.04768 118.00445,74.04768z"/></g></g><path d="M104.298,151.349c0,-74.86275 60.68825,-135.551 135.551,-135.551c74.86275,0 135.551,60.68825 135.551,135.551c0,74.86275 -60.68825,135.551 -135.551,135.551c-74.86275,0 -135.551,-60.68825 -135.551,-135.551z" fill="none" fill-rule="evenodd" stroke="#f1b5ff" stroke-width="2.78" stroke-linecap="round" stroke-linejoin="round" stroke-miterlimit="1.5"/><g stroke="none" stroke-width="1" opacity="0.85"><g fill="none" fill-rule="nonzero" stroke-linecap="butt" stroke-linejoin="miter" stroke-miterlimit="10" font-family="sans-serif" font-weight="normal" font-size="12" text-anchor="start"/><g fill="#ffffff" fill-rule="evenodd" stroke-linecap="round" stroke-linejoin="round" stroke-miterlimit="1.5"><path d="M285.38726,55.10054c-1.15058,-3.24898 -1.09167,-5.68499 0.17061,-7.06299c3.96942,-4.33333 18.64655,2.64142 32.75581,15.56577c14.10926,12.92434 22.34142,26.93495 18.372,31.26828c-1.26227,1.378 -3.68379,1.64982 -7.02024,0.78859z" opacity="0.56"/></g></g><g fill="none" fill-rule="nonzero" stroke="none" stroke-width="1" stroke-linecap="butt" stroke-linejoin="miter" stroke-miterlimit="10" font-family="sans-serif" font-weight="normal" font-size="12" text-anchor="start"/><path d="M199.184,151.349c0,54.072 18.221,103.922 40.665,135.551c-74.813,0 -135.551,-60.739 -135.551,-135.551c0,-74.813 60.738,-135.552 135.551,-135.552c-22.444,31.629 -40.665,81.479 -40.665,135.552z" fill-opacity="0.09" fill="#7028c2" fill-rule="evenodd" stroke="none" stroke-width="1" stroke-linecap="round" stroke-linejoin="round" stroke-miterlimit="1.5"/><g stroke="none" stroke-width="1" opacity="0.69"><g fill="none" fill-rule="nonzero" stroke-linecap="butt" stroke-linejoin="miter" stroke-miterlimit="10" font-family="sans-serif" font-weight="normal" font-size="12" text-anchor="start"/><g fill="#f4eeff" fill-rule="evenodd" stroke-linecap="round" stroke-linejoin="round" stroke-miterlimit="1.5"><path d="M315.50979,238.60005c16.10496,-13.96166 28.04181,-28.91488 31.29882,-37.41029c5.61457,6.47648 -6.13077,25.86837 -26.21245,43.2775c-20.08168,17.40913 -40.94354,26.28496 -46.55811,19.80847c8.87151,-2.019 25.36677,-11.71403 41.47173,-25.67568z"/></g></g><path d="M259.21723,179.26881c0,-5.49723 4.45639,-9.95362 9.95362,-9.95362c5.49723,0 9.95363,4.45639 9.95363,9.95362c0,5.49723 -4.45639,9.95363 -9.95363,9.95363c-5.49723,0 -9.95362,-4.45639 -9.95362,-9.95363z" fill="#ffffff" fill-rule="nonzero" stroke="none" stroke-width="1" stroke-linecap="butt" stroke-linejoin="miter" stroke-miterlimit="10"/><path d="M239.80691,192.9057l1.27842,6.15412l5.79434,2.43917l-5.45924,3.1156l-0.5263,6.26441l-4.65315,-4.22736l-6.12136,1.43226l2.58534,-5.73026l-3.25623,-5.37655l6.24936,0.68519z" fill="#ffffff" fill-rule="nonzero" stroke="none" stroke-width="1" stroke-linecap="butt" stroke-linejoin="miter" stroke-miterlimit="10"/><g fill="#ffffff" fill-rule="nonzero" stroke="none" stroke-width="1" stroke-linecap="butt" stroke-linejoin="miter" stroke-miterlimit="10"><path d="M179.42677,189.22243c0,-3.02262 8.51542,-5.47292 19.01972,-5.47292c10.5043,0 19.01972,2.45031 19.01972,5.47292c0,3.02262 -8.51542,5.47293 -19.01972,5.47293c-10.5043,0 -19.01972,-2.45031 -19.01972,-5.47293z" opacity="0.46"/><path d="M195.12978,189.22243c0,-1.83177 1.48494,-3.31671 3.31671,-3.31671c1.83177,0 3.31671,1.48494 3.31671,3.31671c0,1.83177 -1.48494,3.31671 -3.31671,3.31671c-1.83177,0 -3.31671,-1.48494 -3.31671,-3.31671z"/></g></g></g></svg>
